PathFileType	4	(X/Y/Z)	D:\TRACE\v60_Jaco2_6-2-23\BothDRS_Motion3_4-platform.trc
DataRate	CameraRate	NumFrames	NumMarkers	Units	OrigDataRate	OrigDataStartFrame	OrigNumFrames
100.00	100.00	      24	5	mm	100.00	6126	      7000
Frame#	Time	Left_Front			Right_Front			Left_Aft			Right_Aft			Post			
		X1	Y1	Z1	X2	Y2	Z2	X3	Y3	Z3	X4	Y4	Z4	X5	Y5	Z5	

6126	61.250	-777.04291	18.03371	-648.88098	793.63794	16.11475	-626.11798	-707.60376	5.98514	487.68701	706.18152	2.15856	590.82007	18.18909	1319.10669	-947.13202	
6127	61.260	-777.26483	18.27942	-648.85919	793.42902	16.31934	-626.02850	-707.75452	5.89343	487.71378	705.92993	1.89281	590.84003	17.87175	1319.50366	-946.12811	
6128	61.270	-777.43793	18.51797	-648.85034	793.38910	16.59965	-625.76324	-707.97675	5.76376	487.77902	705.80359	1.73961	590.94446	18.03628	1319.81677	-945.09760	
6129	61.280	-777.56384	18.68486	-648.80713	793.27686	16.81267	-625.74121	-708.07886	5.64299	487.74091	705.63861	1.63432	590.95337	18.10479	1319.94824	-944.21240	
6130	61.290	-777.64526	18.81193	-648.76788	793.06024	16.94561	-625.91882	-708.24023	5.52793	487.76086	705.47266	1.42715	590.90527	17.72527	1320.19360	-943.42529	
6131	61.300	-777.88470	19.05162	-648.71606	792.93036	17.11561	-625.85181	-708.41559	5.29103	487.78735	705.32068	1.24547	590.92120	17.46250	1320.63586	-942.58020	
6132	61.310	-777.48029	19.23041	-648.14850	792.73285	17.32828	-625.85809	-708.70514	5.05729	487.82797	705.17737	1.09666	590.94043	17.16549	1321.01196	-942.14044	
6133	61.320	-778.18530	19.28019	-648.58984	792.42871	17.56139	-625.75031	-708.99561	4.91878	487.87402	704.92328	0.95150	591.04926	16.83621	1321.21924	-941.98657	
6134	61.330	-778.35089	19.47288	-648.52789	792.20874	17.84185	-625.63696	-709.21649	4.82243	487.90906	704.65350	0.68034	591.09778	16.75197	1321.41064	-942.02740	
6135	61.340	-778.16803	19.85049	-648.13062	791.91754	18.22919	-625.62488	-709.39313	4.74556	487.97049	704.52026	0.48384	591.09888	16.48347	1321.79077	-941.93390	
6136	61.350	-778.64758	20.19790	-648.26086	791.74780	18.46515	-625.47968	-709.50891	4.61042	488.07782	704.33276	0.30296	591.18866	16.22253	1322.37708	-941.95099	
6137	61.360	-779.13757	20.59587	-648.35345	791.59161	18.62761	-625.40369	-709.73022	4.35569	488.20956	703.96368	-0.02636	591.27203	15.95745	1322.88281	-941.80225	
6138	61.370	-779.46008	21.01517	-648.27679	791.38214	18.93287	-625.30127	-710.02393	4.01658	488.24976	703.74542	-0.23272	591.35175	15.93578	1323.28210	-941.45422	
6139	61.380	-779.68414	21.37246	-648.11786	791.18829	19.31966	-625.15588	-710.26733	3.78336	488.22632	703.40155	-0.49562	591.43488	15.70083	1323.57935	-940.90588	
6140	61.390	-779.87891	21.58441	-647.96356	790.87970	19.53764	-625.05902	-710.46301	3.64381	488.28110	703.33862	-0.57956	591.55212	15.21035	1323.88745	-940.14447	
6141	61.400	-780.10077	21.67100	-647.87689	790.69531	19.75663	-624.90106	-710.72662	3.57989	488.34796	703.17896	-0.79082	591.58606	15.38733	1324.52698	-939.29407	
6142	61.410	-780.35779	21.90834	-647.85663	790.28333	19.94558	-625.01764	-711.03656	3.44073	488.41614	702.90674	-0.94955	591.70361	15.09071	1324.96448	-938.33417	
6143	61.420	-780.60291	22.12287	-647.94812	790.01276	20.21315	-625.04407	-711.29041	3.27628	488.42804	702.57532	-1.02239	591.78857	14.19379	1325.19153	-937.15759	
6144	61.430	-780.71240	22.29861	-648.03650	789.77258	20.42172	-625.02197	-711.49780	3.04354	488.45465	702.15985	-1.00456	591.94537	14.08057	1325.40430	-936.00549	
6145	61.440	-780.95569	22.58014	-648.05164	789.38922	20.69623	-625.01044	-711.90900	2.77283	488.50369	701.72937	-1.72357	591.76819	14.10667	1325.51013	-935.22729	
6146	61.450	-781.41144	23.06611	-647.92102	789.04285	21.13788	-625.00592	-711.71667	2.51755	488.59857	701.43286	-1.89433	591.80255	13.72664	1326.13757	-934.10889	
6147	61.460	-781.74408	23.36143	-647.61877	788.76605	21.52304	-624.82635	-712.11597	2.36123	488.73889	701.72430	-2.31022	591.66962	13.44867	1326.69116	-933.50061	
6148	61.470	-782.14117	23.70057	-647.35608	788.73987	21.74299	-624.71552	-712.42706	2.19341	488.81870	701.02222	-2.57688	591.83716	13.12722	1327.04468	-933.06866	
6149	61.480	-782.52325	24.02206	-647.21863	788.34247	22.12619	-624.58252	-712.90320	1.91381	488.87668	700.88397	-2.78262	591.90912	12.77253	1327.53491	-932.65234	
